<svg width="56" height="55" viewBox="0 0 56 55" fill="none" xmlns="http://www.w3.org/2000/svg">
<path d="M27.8281 0C24.1737 0 20.555 0.719796 17.1788 2.11829C13.8025 3.51678 10.7347 5.56659 8.15067 8.15067C2.93188 13.3694 0 20.4476 0 27.8281C0 40.1281 7.98667 50.5637 19.0344 54.2648C20.4258 54.4874 20.8711 53.6248 20.8711 52.8734V48.1705C13.1627 49.8401 11.5208 44.4415 11.5208 44.4415C10.2407 41.2134 8.43192 40.3508 8.43192 40.3508C5.89956 38.6254 8.62671 38.6811 8.62671 38.6811C11.4095 38.8759 12.8844 41.5474 12.8844 41.5474C15.3055 45.7772 19.3962 44.525 20.9824 43.8571C21.2329 42.0483 21.9564 40.8238 22.7356 40.1281C16.5577 39.4324 10.0738 37.0392 10.0738 26.4367C10.0738 23.3478 11.1312 20.8711 12.9401 18.8953C12.6618 18.1996 11.6878 15.3055 13.2184 11.5487C13.2184 11.5487 15.5559 10.7973 20.8711 14.3871C23.0695 13.7749 25.4627 13.4688 27.8281 13.4688C30.1935 13.4688 32.5867 13.7749 34.7851 14.3871C40.1003 10.7973 42.4379 11.5487 42.4379 11.5487C43.9684 15.3055 42.9944 18.1996 42.7162 18.8953C44.525 20.8711 45.5824 23.3478 45.5824 26.4367C45.5824 37.067 39.0707 39.4046 32.865 40.1003C33.8668 40.963 34.7851 42.6605 34.7851 45.2485V52.8734C34.7851 53.6248 35.2304 54.5153 36.6496 54.2648C47.6974 50.5359 55.6562 40.1281 55.6562 27.8281C55.6562 24.1737 54.9364 20.555 53.5379 17.1788C52.1394 13.8025 50.0896 10.7347 47.5056 8.15067C44.9215 5.56659 41.8537 3.51678 38.4775 2.11829C35.1012 0.719796 31.4826 0 27.8281 0Z" fill="#24262C"/>
</svg>
