<svg width="55" height="55" viewBox="0 0 55 55" fill="none" xmlns="http://www.w3.org/2000/svg">
<path d="M48.2737 0.307922C49.8741 0.307922 51.4089 0.943668 52.5405 2.0753C53.6722 3.20694 54.3079 4.74176 54.3079 6.34214V48.5816C54.3079 50.182 53.6722 51.7168 52.5405 52.8485C51.4089 53.9801 49.8741 54.6158 48.2737 54.6158H6.03421C4.43384 54.6158 2.89901 53.9801 1.76738 52.8485C0.635745 51.7168 0 50.182 0 48.5816V6.34214C0 4.74176 0.635745 3.20694 1.76738 2.0753C2.89901 0.943668 4.43384 0.307922 6.03421 0.307922H48.2737ZM46.7652 47.0731V31.0824C46.7652 28.4738 45.7289 25.972 43.8843 24.1275C42.0398 22.2829 39.538 21.2466 36.9294 21.2466C34.3648 21.2466 31.3779 22.8155 29.9297 25.1689V21.8199H21.512V47.0731H29.9297V32.1987C29.9297 29.8756 31.8003 27.9748 34.1235 27.9748C35.2437 27.9748 36.3181 28.4198 37.1103 29.212C37.9024 30.0041 38.3474 31.0785 38.3474 32.1987V47.0731H46.7652ZM11.7064 17.083C13.0507 17.083 14.3399 16.549 15.2905 15.5984C16.2411 14.6479 16.7751 13.3586 16.7751 12.0143C16.7751 9.20839 14.5123 6.91539 11.7064 6.91539C10.3541 6.91539 9.05713 7.45259 8.1009 8.40882C7.14467 9.36505 6.60746 10.662 6.60746 12.0143C6.60746 14.8202 8.90046 17.083 11.7064 17.083ZM15.9002 47.0731V21.8199H7.54277V47.0731H15.9002Z" fill="#24262C"/>
</svg>
