<svg width="130" height="130" viewBox="0 0 130 130" fill="none" xmlns="http://www.w3.org/2000/svg">
<path d="M65 110.506C66.5922 110.506 68.129 111.091 69.3189 112.149C70.5088 113.207 71.2689 114.665 71.4552 116.246L71.5007 117.006V123.507C71.4989 125.164 70.8644 126.757 69.727 127.962C68.5896 129.167 67.035 129.892 65.381 129.989C63.7269 130.086 62.0982 129.548 60.8276 128.484C59.557 127.421 58.7405 125.913 58.5448 124.267L58.4993 123.507V117.006C58.4993 115.282 59.1842 113.629 60.4033 112.41C61.6224 111.191 63.2759 110.506 65 110.506ZM106.039 96.9204L106.65 97.4599L111.201 102.01C112.367 103.18 113.043 104.75 113.094 106.4C113.144 108.051 112.564 109.659 111.472 110.898C110.38 112.137 108.857 112.913 107.213 113.07C105.568 113.226 103.926 112.751 102.62 111.741L102.009 111.202L97.4581 106.651C96.3363 105.532 95.6623 104.041 95.5629 102.459C95.4635 100.877 95.9454 99.3131 96.9182 98.0617C97.891 96.8103 99.2875 95.9574 100.845 95.6634C102.403 95.3694 104.014 95.6546 105.376 96.4653L106.039 96.9204ZM32.5419 97.4599C33.6612 98.5792 34.3336 100.068 34.4329 101.648C34.5322 103.228 34.0517 104.79 33.0815 106.04L32.5419 106.651L27.9914 111.202C26.8215 112.367 25.2518 113.044 23.6009 113.095C21.9501 113.145 20.3419 112.565 19.1031 111.473C17.8643 110.381 17.0877 108.858 16.9311 107.214C16.7745 105.57 17.2495 103.928 18.2598 102.621L18.7994 102.01L23.3499 97.4599C24.569 96.2413 26.2221 95.5567 27.9459 95.5567C29.6697 95.5567 31.3228 96.2413 32.5419 97.4599ZM12.9942 58.5032C14.6511 58.5051 16.2448 59.1395 17.4496 60.2769C18.6544 61.4142 19.3795 62.9687 19.4766 64.6226C19.5737 66.2766 19.0355 67.9052 17.9721 69.1757C16.9086 70.4463 15.4001 71.2628 13.7548 71.4585L12.9942 71.504H6.49352C4.83662 71.5021 3.24295 70.8677 2.03813 69.7303C0.833313 68.593 0.108284 67.0385 0.0111815 65.3846C-0.0859206 63.7306 0.452234 62.102 1.51569 60.8315C2.57914 59.5609 4.08763 58.7444 5.73293 58.5487L6.49352 58.5032H12.9942ZM123.506 58.5032C125.163 58.5051 126.757 59.1395 127.962 60.2769C129.167 61.4142 129.892 62.9687 129.989 64.6226C130.086 66.2766 129.548 67.9052 128.484 69.1757C127.421 70.4463 125.912 71.2628 124.267 71.4585L123.506 71.504H117.006C115.349 71.5021 113.755 70.8677 112.55 69.7303C111.346 68.593 110.621 67.0385 110.523 65.3846C110.426 63.7306 110.964 62.102 112.028 60.8315C113.091 59.5609 114.6 58.7444 116.245 58.5487L117.006 58.5032H123.506ZM27.3803 18.266L27.9914 18.8055L32.5419 23.3558C33.7078 24.5256 34.3847 26.0953 34.4351 27.746C34.4855 29.3968 33.9057 31.0049 32.8133 32.2436C31.721 33.4823 30.1981 34.2589 28.5539 34.4155C26.9097 34.5721 25.2675 34.0971 23.961 33.0868L23.3499 32.5473L18.7994 27.9971C17.6818 26.8769 17.0112 25.3876 16.9133 23.8084C16.8154 22.2292 17.2968 20.6685 18.2674 19.4189C19.238 18.1692 20.631 17.3165 22.1854 17.0205C23.7398 16.7245 25.3488 17.0055 26.7108 17.811L27.3803 18.266ZM111.201 18.8055C112.32 19.9249 112.992 21.4141 113.092 22.9938C113.191 24.5736 112.71 26.1353 111.74 27.386L111.201 27.9971L106.65 32.5473C105.48 33.7131 103.91 34.39 102.26 34.4404C100.609 34.4908 99.0006 33.911 97.7618 32.8187C96.523 31.7264 95.7464 30.2036 95.5898 28.5595C95.4332 26.9154 95.9083 25.2733 96.9185 23.9668L97.4581 23.3558L102.009 18.8055C103.228 17.5869 104.881 16.9023 106.605 16.9023C108.328 16.9023 109.982 17.5869 111.201 18.8055ZM65 0C66.5922 0.00021003 68.129 0.584748 69.3189 1.64274C70.5088 2.70073 71.2689 4.1586 71.4552 5.73982L71.5007 6.50036V13.0007C71.4989 14.6575 70.8644 16.2511 69.727 17.4559C68.5896 18.6606 67.035 19.3856 65.381 19.4827C63.7269 19.5798 62.0982 19.0417 60.8276 17.9783C59.557 16.9149 58.7405 15.4065 58.5448 13.7613L58.4993 13.0007V6.50036C58.4993 4.77636 59.1842 3.12297 60.4033 1.90391C61.6224 0.684857 63.2759 0 65 0ZM65 32.5018C71.3686 32.5014 77.597 34.3719 82.9116 37.8808C88.2262 41.3898 92.3928 46.3826 94.894 52.2392C97.3951 58.0958 98.1205 64.5581 96.9801 70.8234C95.8398 77.0888 92.8838 82.8811 88.4795 87.4809C84.0751 92.0808 78.4165 95.2855 72.2063 96.697C65.9961 98.1085 59.508 97.6646 53.5479 95.4205C47.5878 93.1764 42.4184 89.2309 38.6816 84.0741C34.9448 78.9173 32.8053 72.7764 32.5289 66.4142L32.4964 65.0036L32.5289 63.593C32.8924 55.2254 36.4723 47.3212 42.522 41.5286C48.5716 35.736 56.6241 32.5023 65 32.5018Z" fill="#24262C"/>
</svg>
