<svg width="54" height="46" viewBox="0 0 54 46" fill="none" xmlns="http://www.w3.org/2000/svg">
<path fill-rule="evenodd" clip-rule="evenodd" d="M0 6.60714C0 5.07267 0.609565 3.60105 1.6946 2.51602C2.77963 1.43099 4.25125 0.821426 5.78571 0.821426H48.2143C49.7488 0.821426 51.2204 1.43099 52.3054 2.51602C53.3904 3.60105 54 5.07267 54 6.60714V7.92628L28.4773 24.944C28.0335 25.2161 27.5204 25.354 27 25.3413C26.4796 25.354 25.9665 25.2161 25.5227 24.944L0 7.92628V6.60714ZM0 13.7197V39.3929C0 40.9273 0.609565 42.3989 1.6946 43.484C2.77963 44.569 4.25125 45.1786 5.78571 45.1786H48.2143C49.7488 45.1786 51.2204 44.569 52.3054 43.484C53.3904 42.3989 54 40.9273 54 39.3929V13.7197L31.1387 28.9631L31.1194 28.9786C29.8884 29.7604 28.4583 30.1715 27 30.1627C25.5536 30.1627 24.0956 29.7693 22.8806 28.9786L22.8613 28.9631L0 13.7197Z" fill="#24262C"/>
</svg>
