<svg width="55" height="68" viewBox="0 0 55 68" fill="none" xmlns="http://www.w3.org/2000/svg">
<path fill-rule="evenodd" clip-rule="evenodd" d="M30.5494 23.7606H49.2184L30.5494 5.09156V23.7606ZM6.78875 0H33.9438L54.31 20.3662V61.0988C54.31 62.8992 53.5948 64.626 52.3216 65.8991C51.0485 67.1723 49.3217 67.8875 47.5213 67.8875H6.78875C4.98826 67.8875 3.26152 67.1723 1.98838 65.8991C0.715241 64.626 0 62.8992 0 61.0988V6.78875C0 3.02099 3.02099 0 6.78875 0ZM31.5938 61.0988C32.8916 61.0988 33.9438 60.0466 33.9438 58.7488C33.9438 54.4227 30.4367 50.9156 26.1106 50.9156H14.6219C10.2958 50.9156 6.78875 54.4227 6.78875 58.7488C6.78875 60.0466 7.84086 61.0988 9.1387 61.0988H31.5938ZM20.3663 33.9438C18.5658 33.9438 16.839 34.659 15.5659 35.9321C14.2927 37.2053 13.5775 38.932 13.5775 40.7325C13.5775 42.533 14.2927 44.2597 15.5659 45.5329C16.839 46.806 18.5658 47.5212 20.3663 47.5212C22.1667 47.5212 23.8935 46.806 25.1666 45.5329C26.4398 44.2597 27.155 42.533 27.155 40.7325C27.155 38.932 26.4398 37.2053 25.1666 35.9321C23.8935 34.659 22.1667 33.9438 20.3663 33.9438Z" fill="#24262C"/>
</svg>
